<svg width="93" height="71" viewBox="0 0 93 71" fill="none" xmlns="http://www.w3.org/2000/svg">
<path d="M92.544 70.36L7.296 70.36C4.30933 70.36 2.34666 69.8907 1.408 68.952C0.46933 68.0987 -3.28803e-06 66.2213 -3.16121e-06 63.32L-2.36671e-06 45.144C-2.14664e-06 40.1093 0.767998 36.7813 2.304 35.16C3.84 33.624 7.808 32.2587 14.208 31.064C26.8373 28.6747 47.232 25.2187 75.392 20.696C77.5253 20.3547 78.8907 19.8427 79.488 19.16C80.0853 18.5627 80.4267 17.496 80.512 15.96L80.512 0.215999L92.544 0.215999L92.544 27.992C92.544 30.1253 92.288 31.832 91.776 33.112C91.264 34.392 90.1547 35.416 88.448 36.184C86.8267 37.0373 85.248 37.592 83.712 37.848C82.176 38.1893 80.384 38.5307 78.336 38.872C75.8613 39.2987 72.2347 39.896 67.456 40.664C57.8133 42.1147 44.2027 44.376 26.624 47.448C19.1147 48.6427 14.8907 49.4533 13.952 49.88C13.0987 50.392 12.5867 51.2453 12.416 52.44L87.424 52.44C88.96 52.44 90.1973 52.8667 91.136 53.72C92.0747 54.5733 92.544 55.6827 92.544 57.048L92.544 70.36ZM76.032 0.215998L76.032 13.528C76.032 14.8933 75.5627 16.0027 74.624 16.856C73.6853 17.7093 72.448 18.136 70.912 18.136L7.296 18.136C4.39467 18.136 2.432 17.752 1.408 16.984C0.469332 16.216 -1.03509e-06 14.68 -9.34375e-07 12.376L-4.02844e-07 0.215995L76.032 0.215998Z" fill="#00DC82"/>
</svg>
